<svg width="101" height="14" viewBox="0 0 101 14" fill="none" xmlns="http://www.w3.org/2000/svg">
<path d="M24.853 12.1298C24.9689 12.1046 25.136 12.0758 25.3559 12.0432C25.5758 12.0106 25.7875 11.9892 25.994 11.9766L30.48 0.949493H32.8779L37.2286 11.9766C37.4475 11.989 37.6731 12.0111 37.9054 12.0432C38.1376 12.0753 38.3053 12.1041 38.4083 12.1298V13.7432H33.305V12.1224C33.408 12.0963 33.56 12.0671 33.7611 12.0351C33.9703 12.0021 34.181 11.9796 34.3925 11.9677L33.8101 10.327H29.0716L28.4506 11.9677C28.6734 11.9803 28.8844 12.0032 29.0909 12.0351C29.2974 12.0669 29.4534 12.0965 29.5574 12.1224V13.7432H24.853V12.1298ZM33.1393 8.65884L32.2249 6.09894C32.0303 5.56904 31.8713 5.10379 31.748 4.70317C31.6247 4.30254 31.5306 3.97938 31.4658 3.73367H31.4271C31.3618 3.96605 31.2578 4.29563 31.1151 4.72241C30.9725 5.14919 30.8103 5.60802 30.6286 6.09894L29.6948 8.65884H33.1393Z" fill="#1A3559"/>
<path d="M52.3282 13.983C51.9057 14.0288 51.4782 13.9819 51.0759 13.8455C50.6736 13.709 50.3061 13.4864 49.9994 13.1933C49.5265 12.5841 49.2892 11.8258 49.3309 11.0567V6.35501H47.8994V4.3694H49.3346V2.29201L51.8862 1.65479V4.3694H54.677V6.35501H51.8862V10.6526C51.8544 11.0018 51.943 11.3513 52.1373 11.6436C52.2355 11.7478 52.356 11.8285 52.4899 11.8798C52.6238 11.931 52.7676 11.9515 52.9105 11.9396C53.1612 11.9454 53.4106 11.9031 53.6452 11.8153C53.8056 11.7536 53.9609 11.6794 54.1095 11.5933L54.6978 13.4583C54.4122 13.5993 54.1137 13.7128 53.8064 13.7972C53.3253 13.9301 52.8273 13.9927 52.3282 13.983Z" fill="#1A3559"/>
<path d="M59.9599 13.9926C59.2298 14.0116 58.5044 13.8704 57.8353 13.5788C57.2747 13.3274 56.7766 12.956 56.3764 12.491C55.9932 12.0371 55.7073 11.51 55.5363 10.942C55.3554 10.359 55.264 9.75223 55.2651 9.1421C55.2663 8.53141 55.361 7.92446 55.5459 7.34223C55.7245 6.76058 56.0129 6.21825 56.3957 5.74441C56.7934 5.26237 57.2911 4.87179 57.8546 4.59952C58.5119 4.28966 59.2329 4.1376 59.9599 4.15549C60.6922 4.13749 61.42 4.27521 62.0947 4.55955C62.6615 4.8053 63.1663 5.17338 63.573 5.63713C63.9615 6.09075 64.2541 6.61785 64.4332 7.18685C64.6204 7.77514 64.7149 8.38881 64.7132 9.00595C64.7109 9.6102 64.6165 10.2105 64.4332 10.7865C64.2512 11.3737 63.9557 11.9198 63.5633 12.394C63.1563 12.8799 62.6498 13.2736 62.0776 13.5485C61.4158 13.8581 60.6908 14.0101 59.9599 13.9926ZM59.9992 12.1061C60.3225 12.1152 60.6424 12.0386 60.9263 11.8841C61.1853 11.7353 61.399 11.5191 61.5443 11.2587C61.7088 10.9619 61.823 10.6401 61.8823 10.3062C61.9558 9.90936 61.9913 9.50645 61.9885 9.10289C61.991 8.69252 61.9521 8.28291 61.8726 7.88026C61.8079 7.53594 61.6873 7.20447 61.5153 6.89893C61.3632 6.63216 61.1434 6.4099 60.878 6.25434C60.5922 6.09494 60.2687 6.01517 59.9413 6.02343C59.6144 6.01222 59.2906 6.0889 59.0038 6.24545C58.749 6.39661 58.5391 6.61243 58.3954 6.87083C58.2313 7.16693 58.1202 7.48923 58.0671 7.8233C58 8.22088 57.9677 8.62349 57.9705 9.02664C57.9679 9.43657 58.0035 9.84589 58.0767 10.2493C58.1353 10.5952 58.2564 10.9277 58.4341 11.2306C58.5879 11.4928 58.8033 11.714 59.0617 11.8752C59.3465 12.0379 59.6712 12.1178 59.9992 12.1061Z" fill="#1A3559"/>
<path d="M65.6782 12.1284C65.8887 12.0772 66.102 12.0384 66.317 12.0121C66.5809 11.9756 66.847 11.9565 67.1134 11.9552V6.10858C66.8252 6.08243 66.5565 6.06318 66.3074 6.05085C66.0583 6.03852 65.8486 6.0321 65.6782 6.03161V4.41604C66.0184 4.37755 66.5557 4.34227 67.2902 4.3102C68.0246 4.27813 68.8439 4.2621 69.7482 4.2621L69.6494 5.87767H69.6264C69.7294 5.6681 69.8539 5.46971 69.9978 5.28562C70.1513 5.07437 70.3347 4.88644 70.5423 4.72762C70.756 4.567 70.9926 4.43904 71.2443 4.34797C71.5116 4.25373 71.7914 4.19913 72.0747 4.18589C72.3458 4.16151 72.6189 4.17568 72.8859 4.22804C73.0054 4.25153 73.1231 4.28345 73.238 4.32353C73.2212 4.91559 73.2044 5.51009 73.1875 6.10709C72.9825 6.11079 72.7285 6.12338 72.4373 6.15298C72.1922 6.17264 71.9487 6.20873 71.7085 6.26103C71.4563 6.30935 71.2112 6.3892 70.9791 6.49863C70.7624 6.60697 70.5603 6.74196 70.3774 6.90046C70.213 7.03186 70.0635 7.18074 69.9316 7.34449C69.8319 7.46373 69.7441 7.5924 69.6695 7.72862V11.9596C69.7861 11.9596 69.922 11.9663 70.078 11.9789L70.5445 12.0166C70.6881 12.0282 70.8309 12.0475 70.9724 12.0743L71.2643 12.1328V13.7476H65.6827L65.6782 12.1284Z" fill="#1A3559"/>
<path d="M73.9727 12.1261C74.1834 12.0753 74.397 12.0368 74.6123 12.0107C74.8761 11.9734 75.1421 11.9542 75.4086 11.9529V6.10114C75.1194 6.07598 74.8505 6.05673 74.6019 6.04341C74.3533 6.03009 74.1435 6.02368 73.9727 6.02417V4.42414C74.3069 4.38566 74.8366 4.35065 75.5616 4.31907C76.2866 4.2875 77.1181 4.27146 78.056 4.27097L77.9602 5.78662V11.9492C78.1958 11.9511 78.4309 11.9704 78.6636 12.007C78.8567 12.0323 79.0479 12.0709 79.2356 12.1224V13.7395H73.9727V12.1261Z" fill="#1A3559"/>
<path d="M82.9405 13.9889C82.5598 13.9917 82.1812 13.9327 81.8195 13.8142C81.4853 13.7056 81.1763 13.5312 80.911 13.3013C80.65 13.0707 80.4421 12.7864 80.3019 12.468C80.1479 12.1103 80.072 11.7241 80.0791 11.335C80.0614 10.7921 80.2062 10.2562 80.4951 9.79559C80.7789 9.36968 81.1609 9.01773 81.6093 8.76913C82.1114 8.49048 82.6567 8.29736 83.2227 8.19777C83.8507 8.08001 84.4884 8.02156 85.1274 8.02314H85.4557V7.36889C85.4713 7.18856 85.4483 7.00701 85.3882 6.83619C85.3282 6.66537 85.2324 6.50917 85.1073 6.37794C84.7531 6.12933 84.3209 6.01634 83.8898 6.05971C83.4133 6.05404 82.9413 6.15282 82.5074 6.34907C82.1343 6.51448 81.781 6.721 81.4541 6.96479L80.3911 5.46319C80.8381 5.0707 81.3478 4.7553 81.899 4.52996C82.6223 4.23658 83.3988 4.0957 84.1795 4.11625C85.2073 4.03507 86.2309 4.31789 87.0699 4.91482C87.4118 5.26383 87.6729 5.68319 87.8349 6.14346C87.9968 6.60372 88.0557 7.09372 88.0073 7.57907V11.5858C88.0073 11.7405 88.0133 11.8893 88.0266 12.0299C88.2844 12.0558 88.5221 12.075 88.742 12.0876C88.9619 12.1002 89.1409 12.1069 89.2828 12.1069V13.7535C88.9738 13.7797 88.51 13.8043 87.8914 13.8275C87.2729 13.8507 86.5576 13.8638 85.7454 13.8668C85.6973 13.7022 85.6649 13.5334 85.6488 13.3628C85.6228 13.1407 85.6035 12.9239 85.5909 12.7048H85.5523C85.283 13.0593 84.9444 13.3556 84.5569 13.5759C84.0675 13.8615 83.5074 14.0046 82.9405 13.9889ZM83.7145 12.2127C84.0742 12.2254 84.4309 12.1424 84.7478 11.9722C85.0159 11.8196 85.2549 11.6209 85.4535 11.3853V9.61427H85.1251C84.4863 9.58868 83.8498 9.70366 83.2606 9.95102C83.0337 10.0558 82.8444 10.2272 82.7183 10.4424C82.5921 10.6575 82.5351 10.906 82.5549 11.1544C82.5416 11.3082 82.5673 11.4629 82.6299 11.6042C82.6925 11.7455 82.7899 11.8687 82.913 11.9626C83.1471 12.1275 83.4277 12.2143 83.7145 12.2104V12.2127Z" fill="#1A3559"/>
<path d="M89.998 12.1209C90.2086 12.0702 90.4219 12.0316 90.6369 12.0055C90.9007 11.9683 91.1668 11.949 91.4332 11.9478V6.08268C91.145 6.05653 90.8764 6.03701 90.6273 6.02419C90.3784 6.0116 90.1682 6.00494 89.998 6.00494V4.38495C90.3393 4.34548 90.8734 4.30997 91.6004 4.27839C92.3274 4.24681 93.1432 4.23078 94.048 4.23028L93.9692 5.6364H94.0978C94.4049 5.20529 94.7938 4.83825 95.2424 4.55592C95.7624 4.24476 96.3619 4.09049 96.9681 4.11185C97.4049 4.09998 97.8395 4.17862 98.2442 4.34276C98.576 4.48384 98.8687 4.70241 99.0977 4.97998C99.3232 5.2637 99.4862 5.59149 99.5762 5.94207C99.6784 6.33899 99.7284 6.74747 99.7247 7.15724V11.9426C99.9603 11.9444 100.195 11.9637 100.428 12.0003C100.621 12.0256 100.812 12.0642 101 12.1158V13.7365H97.1731V7.61536C97.2018 7.23579 97.0967 6.85812 96.876 6.54744C96.7502 6.41941 96.5972 6.32102 96.4283 6.25943C96.2595 6.19784 96.0789 6.1746 95.8999 6.19145C95.4895 6.18619 95.0899 6.32213 94.7685 6.57631C94.4716 6.80126 94.208 7.06684 93.9856 7.36521V11.9463C94.2332 11.9596 94.4786 11.982 94.7217 12.0136C94.9044 12.0339 95.085 12.0693 95.2618 12.1195V13.7365H89.9988L89.998 12.1209Z" fill="#1A3559"/>
<path d="M42.8878 13.9304C42.1827 13.9356 41.4791 13.8652 40.7892 13.7203C40.2938 13.6313 39.8141 13.4707 39.3652 13.2436V10.7274H41.1748C41.1748 10.7533 41.1807 10.8162 41.1933 10.9183C41.206 11.0205 41.2193 11.1344 41.232 11.2617C41.2446 11.389 41.2543 11.5096 41.2609 11.6243C41.2676 11.7391 41.2706 11.8279 41.2706 11.8915C41.5143 11.9552 41.771 12.0124 42.0409 12.0632C42.3202 12.1144 42.6038 12.1391 42.8878 12.1372C43.3096 12.1597 43.7303 12.0744 44.1097 11.8893C44.2395 11.827 44.3489 11.7295 44.4256 11.608C44.5022 11.4865 44.5428 11.346 44.5428 11.2025C44.5484 11.0272 44.4865 10.8564 44.3697 10.7252C44.2389 10.5873 44.0818 10.4768 43.9077 10.4003C43.6929 10.3035 43.4709 10.2238 43.2436 10.1619C42.9935 10.0924 42.7335 10.0184 42.4636 9.93993C42.1052 9.84702 41.7519 9.73562 41.4051 9.60617C41.0585 9.4803 40.733 9.30315 40.4394 9.0807C40.151 8.85721 39.9146 8.57421 39.7463 8.25109C39.5524 7.84989 39.4599 7.40756 39.4767 6.9626C39.455 6.56216 39.5344 6.16271 39.7077 5.80073C39.8809 5.43874 40.1424 5.12577 40.4683 4.8904C41.2905 4.36852 42.257 4.11812 43.2302 4.17477C43.613 4.17415 43.9955 4.19664 44.3756 4.24212C44.7411 4.28652 45.0715 4.34054 45.3666 4.40419C45.6272 4.45824 45.8842 4.5282 46.1362 4.61364C46.3033 4.66749 46.4645 4.7379 46.6175 4.82382V7.30455H44.8087C44.774 7.14114 44.7514 6.97537 44.7411 6.80866C44.7218 6.57924 44.7055 6.35724 44.6928 6.14262C44.4744 6.0923 44.2471 6.04716 44.0094 6.00941C43.771 5.97087 43.5297 5.95157 43.2881 5.95169C42.2744 5.95169 41.7676 6.25066 41.7676 6.84864C41.7652 6.93109 41.7792 7.01318 41.809 7.09017C41.8387 7.16715 41.8835 7.23751 41.9407 7.29714C42.0757 7.43193 42.2359 7.53901 42.4123 7.61238C42.6365 7.71039 42.8683 7.7901 43.1054 7.8507L43.9225 8.07272C44.2816 8.17485 44.6376 8.2893 44.9907 8.4161C45.3338 8.53833 45.6577 8.70856 45.9527 8.92161C46.2416 9.13195 46.4813 9.4021 46.6554 9.71349C46.8476 10.0846 46.9405 10.4988 46.925 10.9161C46.9335 11.3622 46.8344 11.8038 46.6361 12.2038C46.4418 12.5814 46.1577 12.9059 45.8086 13.1489C45.4199 13.4169 44.9865 13.6138 44.5287 13.7306C43.9929 13.8691 43.4412 13.9363 42.8878 13.9304Z" fill="#1A3559"/>
<path d="M77.9584 0H75.4067V2.54216H77.9584V0Z" fill="#1A3559"/>
<path d="M16.0593 6.99073L12.8488 0H6.4218L3.21199 6.99001L0 13.9844H6.42475L3.21421 6.99367H8.48835L11.6989 13.9844H19.2757L16.0593 6.99073Z" fill="#1A3559"/>
</svg>
